<svg xmlns="http://www.w3.org/2000/svg" viewBox="0 0 100 100">
  <defs>
    <linearGradient id="grad" x1="0%" y1="0%" x2="100%" y2="100%">
      <stop offset="0%" style="stop-color:#3b82f6;stop-opacity:1" />
      <stop offset="100%" style="stop-color:#6366f1;stop-opacity:1" />
    </linearGradient>
  </defs>
  <rect width="100" height="100" rx="20" fill="url(#grad)"/>
  <path d="M25 35 h20 v50 h-20 z M30 40 h10 v5 h-10 z M30 50 h10 v3 h-10 z M30 56 h10 v3 h-10 z M30 62 h10 v3 h-10 z M30 68 h10 v3 h-10 z M30 74 h10 v3 h-10 z" fill="white"/>
  <path d="M55 25 h20 v60 h-20 z M60 30 h10 v8 h-10 z M60 42 h10 v3 h-10 z M60 48 h10 v3 h-10 z M60 54 h10 v3 h-10 z M60 60 h10 v3 h-10 z M60 66 h10 v3 h-10 z M60 72 h10 v3 h-10 z M60 78 h10 v3 h-10 z" fill="white" opacity="0.9"/>
</svg>
